<?xml version="1.0" standalone="no"?>
<!DOCTYPE svg PUBLIC "-//W3C//DTD SVG 20010904//EN"
 "http://www.w3.org/TR/2001/REC-SVG-20010904/DTD/svg10.dtd">
<svg version="1.0" xmlns="http://www.w3.org/2000/svg"
 width="1024.000000pt" height="1024.000000pt" viewBox="0 0 1024.000000 1024.000000"
 preserveAspectRatio="xMidYMid meet">

<g transform="translate(0.000000,1024.000000) scale(0.100000,-0.100000)"
fill="#000000" stroke="none">
<path d="M7294 7641 c-267 -63 -561 -245 -804 -498 -235 -244 -334 -468 -302
-680 34 -226 159 -370 564 -653 196 -136 338 -245 338 -259 0 -5 -52 -37 -116
-71 -398 -212 -766 -461 -941 -637 -205 -207 -204 -386 2 -458 67 -24 223 -24
335 -1 292 61 642 264 812 473 120 147 169 260 169 395 0 89 -13 146 -48 206
-14 24 -24 44 -22 46 15 14 391 187 396 183 1 -2 -12 -43 -28 -92 -38 -114
-44 -220 -14 -280 22 -43 83 -85 125 -85 69 0 193 89 300 216 l65 76 5 -80 c5
-71 9 -86 36 -119 44 -55 86 -73 170 -73 120 0 213 36 370 146 99 68 240 210
250 251 4 15 2 33 -3 42 -20 32 -47 23 -113 -41 -150 -146 -370 -274 -486
-285 -58 -5 -62 -4 -83 23 -21 26 -23 36 -17 96 5 61 23 119 97 315 28 73 21
112 -24 127 -39 14 -53 3 -101 -82 -142 -248 -441 -547 -482 -481 -15 26 -4
118 24 195 16 44 57 138 91 210 33 72 61 140 61 153 0 32 -45 73 -76 69 -21
-2 -35 -18 -69 -78 l-42 -75 -114 -49 c-63 -27 -179 -77 -258 -112 -79 -35
-149 -64 -155 -64 -6 0 -38 23 -71 52 -74 63 -161 127 -330 243 -131 90 -244
175 -300 224 -300 266 -271 581 86 942 155 156 315 273 494 359 277 134 503
153 633 53 107 -82 93 -251 -48 -551 -50 -105 -131 -246 -207 -359 -46 -69
-50 -82 -31 -101 35 -35 76 0 179 148 116 165 198 324 256 494 64 190 43 339
-63 443 -78 75 -136 95 -299 99 -102 3 -148 -1 -211 -15z m-68 -2295 c31 -91
-1 -221 -84 -342 -51 -75 -186 -204 -283 -271 -306 -210 -755 -321 -848 -209
-23 28 -6 82 49 156 137 185 511 448 1050 737 l55 30 22 -26 c13 -14 30 -48
39 -75z"/>
<path d="M2890 7563 c-231 -26 -498 -127 -765 -288 -156 -94 -205 -129 -351
-252 -256 -214 -443 -456 -475 -613 -19 -93 19 -180 91 -210 27 -11 34 -11 47
2 14 14 13 19 -8 47 -47 63 -22 164 73 299 174 245 476 505 788 677 239 131
455 199 707 220 157 13 357 -31 471 -104 115 -75 158 -165 150 -315 -20 -370
-373 -786 -1006 -1189 -178 -113 -365 -208 -424 -214 -31 -4 -48 -2 -48 5 0
14 23 76 154 412 164 421 376 989 376 1009 0 32 -39 71 -70 71 -37 0 -45 -12
-84 -126 -40 -118 -232 -628 -344 -914 -45 -113 -100 -254 -124 -315 l-43
-110 -78 -12 c-138 -21 -177 -44 -177 -103 0 -47 68 -90 142 -90 16 0 28 -5
28 -13 0 -7 -18 -60 -41 -118 -76 -194 -248 -656 -288 -773 -45 -130 -44 -154
7 -175 41 -17 66 -2 86 51 9 24 49 135 90 248 155 427 281 755 302 788 12 18
23 22 67 22 31 0 66 -7 85 -17 60 -33 185 -148 325 -301 78 -84 173 -177 212
-207 140 -108 277 -148 328 -97 31 32 14 52 -61 72 -108 30 -212 111 -397 309
-66 71 -162 166 -212 212 -51 45 -93 86 -93 90 0 4 64 41 142 81 145 74 377
221 522 330 407 307 675 657 732 955 39 203 0 348 -125 474 -73 73 -126 104
-246 142 -126 41 -314 57 -465 40z m-926 -2012 c-5 -5 -27 -12 -48 -16 -35 -6
-38 -5 -27 9 7 8 27 16 44 18 37 4 44 1 31 -11z"/>
<path d="M3848 5888 c-8 -7 -35 -49 -58 -93 -140 -260 -398 -547 -467 -520
-13 4 -15 17 -10 68 6 65 35 155 111 351 26 66 46 128 44 139 -2 11 -15 29
-30 40 -46 34 -68 15 -118 -105 -167 -402 -170 -590 -11 -606 38 -3 61 1 98
19 57 27 198 166 262 257 24 34 45 61 47 59 2 -1 -5 -27 -16 -57 -11 -30 -33
-101 -50 -157 -26 -86 -36 -107 -63 -127 -18 -14 -79 -61 -137 -106 -390 -300
-709 -669 -846 -980 -52 -119 -68 -185 -68 -280 0 -96 26 -156 84 -199 183
-132 401 15 658 446 39 66 94 169 122 229 28 60 54 116 59 125 30 53 172 421
237 613 24 71 54 140 66 154 13 13 55 48 93 77 39 30 90 74 115 99 24 25 47
46 50 46 3 0 6 -23 7 -51 4 -113 103 -169 210 -118 52 24 197 161 232 219 11
19 21 33 21 30 1 -3 2 -30 4 -61 8 -108 73 -179 167 -179 54 0 135 44 206 112
53 50 65 58 59 38 -16 -57 -29 -148 -23 -163 7 -20 64 -50 82 -44 7 3 45 54
85 114 103 154 154 216 275 331 110 107 138 123 130 75 -3 -16 -9 -55 -15 -87
-19 -110 -13 -186 18 -246 36 -72 87 -100 181 -100 149 0 294 69 468 220 81
71 89 85 69 115 -9 14 -20 25 -25 25 -5 0 -60 -34 -123 -76 -129 -87 -199
-124 -286 -153 -169 -57 -211 -5 -177 218 22 139 17 197 -20 228 -60 52 -140
15 -290 -134 -55 -55 -116 -120 -135 -146 -19 -25 -38 -47 -41 -47 -4 0 20 64
53 143 32 78 60 154 60 169 1 38 -19 58 -57 58 -38 0 -55 -18 -79 -80 -47
-123 -133 -246 -248 -356 -105 -101 -188 -131 -209 -76 -21 53 1 148 88 375
21 55 13 75 -33 90 -16 6 -46 25 -68 44 -37 34 -40 35 -110 31 -49 -2 -88 -12
-127 -30 -67 -31 -183 -137 -235 -215 -54 -82 -311 -329 -333 -321 -5 1 22
100 60 218 39 118 73 236 76 261 5 41 3 48 -22 67 -32 25 -45 27 -67 10z m681
-85 c21 -5 23 -10 18 -45 -16 -121 -303 -457 -381 -446 -18 3 -21 9 -19 53 3
84 80 222 178 320 44 44 100 90 125 103 51 25 47 24 79 15z m-1022 -984 c-187
-505 -363 -838 -548 -1034 -90 -94 -142 -128 -200 -127 -75 1 -109 44 -109
134 1 225 197 546 544 893 147 147 368 334 374 316 1 -4 -26 -86 -61 -182z"/>
<path d="M7215 4264 c-944 -48 -2174 -238 -3073 -474 -700 -184 -1455 -490
-1714 -695 -90 -71 -109 -118 -57 -146 17 -8 28 -3 71 36 161 145 761 399
1408 596 608 185 1497 364 2326 468 675 85 925 104 1379 105 380 1 540 -9 705
-42 78 -16 85 -19 88 -42 5 -34 28 -50 74 -50 62 0 95 49 68 101 -26 48 -186
98 -400 124 -120 15 -702 28 -875 19z"/>
</g>
</svg>
