<svg width="600" height="300" viewBox="0 0 600 300" xmlns="http://www.w3.org/2000/svg">
<style>
.signature-path {
  fill: none;
  stroke: #2c2c2c;
  stroke-width: 3;
  stroke-linecap: round;
  stroke-linejoin: round;
  opacity: 0;
}

.ryan-r {
  stroke-dasharray: 220;
  stroke-dashoffset: 220;
  animation: draw-r 0.8s ease-out 0.2s forwards;
}

.ryan-y {
  stroke-dasharray: 180;
  stroke-dashoffset: 180;
  animation: draw-y 0.7s ease-out 1.0s forwards;
}

.ryan-a {
  stroke-dasharray: 160;
  stroke-dashoffset: 160;
  animation: draw-a 0.6s ease-out 1.7s forwards;
}

.ryan-n {
  stroke-dasharray: 140;
  stroke-dashoffset: 140;
  animation: draw-n 0.5s ease-out 2.3s forwards;
}

.su-s {
  stroke-dasharray: 200;
  stroke-dashoffset: 200;
  animation: draw-s 0.9s ease-out 2.8s forwards;
}

.su-u {
  stroke-dasharray: 180;
  stroke-dashoffset: 180;
  animation: draw-u 0.7s ease-out 3.7s forwards;
}

.flourish {
  stroke-dasharray: 250;
  stroke-dashoffset: 250;
  animation: draw-flourish 1.0s ease-out 4.4s forwards;
}

@keyframes draw-r {
  to {
    stroke-dashoffset: 0;
    opacity: 1;
  }
}

@keyframes draw-y {
  to {
    stroke-dashoffset: 0;
    opacity: 1;
  }
}

@keyframes draw-a {
  to {
    stroke-dashoffset: 0;
    opacity: 1;
  }
}

@keyframes draw-n {
  to {
    stroke-dashoffset: 0;
    opacity: 1;
  }
}

@keyframes draw-s {
  to {
    stroke-dashoffset: 0;
    opacity: 1;
  }
}

@keyframes draw-u {
  to {
    stroke-dashoffset: 0;
    opacity: 1;
  }
}

@keyframes draw-flourish {
  to {
    stroke-dashoffset: 0;
    opacity: 1;
  }
}

.restart-btn {
  cursor: pointer;
  fill: #4a90e2;
  stroke: #4a90e2;
  transition: all 0.3s ease;
}

.restart-btn:hover {
  fill: #357abd;
  stroke: #357abd;
}

.restart-text {
  font-family: Arial, sans-serif;
  font-size: 12px;
  fill: white;
  text-anchor: middle;
  dominant-baseline: middle;
  pointer-events: none;
}
</style>

<!-- Ryan -->
<!-- R -->
<path class="signature-path ryan-r" d="M 60 150 Q 60 120 70 110 Q 85 100 100 110 Q 110 120 105 140 Q 100 150 85 150 L 100 150 Q 115 160 125 180"/>

<!-- y -->
<path class="signature-path ryan-y" d="M 130 150 Q 135 130 145 125 Q 155 120 165 130 Q 170 140 165 150 Q 160 160 150 165 Q 140 170 135 180 Q 130 195 125 210"/>

<!-- a -->
<path class="signature-path ryan-a" d="M 175 150 Q 180 135 190 130 Q 200 125 210 135 Q 215 145 210 155 Q 205 165 195 165 Q 185 165 180 155 L 210 155 Q 215 165 220 175"/>

<!-- n -->
<path class="signature-path ryan-n" d="M 225 165 Q 230 150 235 145 Q 245 135 255 145 Q 265 155 270 165 Q 275 175 280 165"/>

<!-- Su -->
<!-- S -->
<path class="signature-path su-s" d="M 340 140 Q 330 130 320 135 Q 310 140 315 150 Q 320 160 330 160 Q 340 160 345 150 Q 350 140 355 145 Q 365 150 360 160 Q 355 170 345 170"/>

<!-- u -->
<path class="signature-path su-u" d="M 370 145 Q 375 155 380 165 Q 385 175 395 175 Q 405 175 410 165 Q 415 155 420 145 Q 425 155 430 165"/>

<!-- Decorative flourish -->
<path class="signature-path flourish" d="M 280 175 Q 320 185 360 175 Q 400 165 440 175 Q 460 180 470 175 Q 480 170 475 165"/>

<!-- Restart button -->
<g class="restart-btn" onclick="restartAnimation()">
  <rect x="20" y="20" width="80" height="30" rx="15"/>
  <text x="60" y="35" class="restart-text">重新播放</text>
</g>

<script type="text/javascript"><![CDATA[
function restartAnimation() {
  const paths = document.querySelectorAll('.signature-path');
  paths.forEach(path => {
    path.style.animation = 'none';
    path.offsetHeight; // Trigger reflow
    path.style.animation = null;
  });
}
]]></script>
</svg>